<svg width="47" height="47" viewBox="0 0 47 47" fill="none" xmlns="http://www.w3.org/2000/svg">
<rect x="0.832031" width="46.1682" height="46.1682" rx="23.0841" fill="url(#paint0_radial_255_592)"/>
<rect x="0.832031" width="46.1682" height="46.1682" rx="23.0841" fill="url(#paint1_radial_255_592)"/>
<path d="M18.6748 22.927C18.6748 20.1241 20.9464 17.8513 23.7493 17.8513C26.5522 17.8513 28.825 20.1241 28.825 22.927C28.825 25.7299 26.5522 28.0027 23.7493 28.0027C20.9464 28.0027 18.6748 25.7299 18.6748 22.927ZM15.931 22.927C15.931 27.2451 19.4313 30.7453 23.7493 30.7453C28.0674 30.7453 31.5676 27.2451 31.5676 22.927C31.5676 18.609 28.0674 15.1087 23.7493 15.1087C19.4313 15.1087 15.9311 18.6087 15.9311 22.927M30.0501 14.7987C30.05 15.1601 30.157 15.5134 30.3577 15.814C30.5583 16.1145 30.8436 16.3488 31.1774 16.4872C31.5112 16.6256 31.8785 16.662 32.233 16.5916C32.5874 16.5213 32.9131 16.3474 33.1687 16.0919C33.4243 15.8365 33.5985 15.511 33.6691 15.1566C33.7397 14.8022 33.7037 14.4349 33.5656 14.1009C33.4274 13.767 33.1933 13.4816 32.8929 13.2807C32.5926 13.0798 32.2393 12.9725 31.878 12.9724H31.8773C31.3929 12.9726 30.9284 13.1651 30.5858 13.5075C30.2432 13.8499 30.0506 14.3144 30.0501 14.7987ZM17.5981 35.3207C16.1136 35.2531 15.3067 35.0058 14.7706 34.7969C14.0597 34.5201 13.5525 34.1905 13.0192 33.658C12.4859 33.1255 12.1558 32.6187 11.8803 31.9079C11.6713 31.3719 11.424 30.5648 11.3565 29.0804C11.2827 27.4754 11.268 26.9933 11.268 22.9273C11.268 18.8613 11.2839 18.3805 11.3565 16.7742C11.4241 15.2897 11.6732 14.4842 11.8803 13.9467C12.1571 13.2358 12.4867 12.7286 13.0192 12.1954C13.5518 11.6621 14.0585 11.332 14.7706 11.0565C15.3065 10.8474 16.1136 10.6002 17.5981 10.5327C19.203 10.4589 19.6851 10.4441 23.7493 10.4441C27.8135 10.4441 28.2961 10.4599 29.9024 10.5329C31.3869 10.6005 32.1924 10.8496 32.7299 11.0567C33.4408 11.3322 33.948 11.6631 34.4812 12.1956C35.0145 12.7281 35.3434 13.2361 35.6201 13.9469C35.8292 14.4829 36.0764 15.29 36.1439 16.7745C36.2177 18.3807 36.2325 18.8615 36.2325 22.9275C36.2325 26.9936 36.2177 27.4743 36.1439 29.0806C36.0763 30.5651 35.8278 31.3719 35.6201 31.9081C35.3434 32.619 35.0138 33.1262 34.4812 33.6582C33.9487 34.1903 33.4408 34.5204 32.7299 34.7971C32.1939 35.0062 31.3869 35.2534 29.9024 35.3209C28.2975 35.3947 27.8154 35.4095 23.7493 35.4095C19.6833 35.4095 19.2025 35.3947 17.5981 35.3209M17.472 7.79338C15.8511 7.86719 14.7435 8.12421 13.7762 8.50059C12.7751 8.88928 11.9265 9.41073 11.0791 10.2568C10.2317 11.1029 9.71154 11.9516 9.32286 12.954C8.94647 13.9219 8.68946 15.0288 8.61565 16.6497C8.54061 18.2732 8.52344 18.7922 8.52344 22.927C8.52344 27.0619 8.54061 27.5809 8.61565 29.2044C8.68946 30.8254 8.94647 31.9322 9.32286 32.9001C9.71154 33.9012 10.2318 34.7516 11.0791 35.5973C11.9264 36.443 12.7739 36.9637 13.7762 37.3535C14.7453 37.7299 15.8511 37.9869 17.472 38.0607C19.0963 38.1345 19.6145 38.1529 23.7493 38.1529C27.8842 38.1529 28.4032 38.1357 30.0266 38.0607C31.6476 37.9869 32.7545 37.7299 33.7224 37.3535C34.7235 36.9637 35.5721 36.4434 36.4196 35.5973C37.267 34.7512 37.786 33.9012 38.1758 32.9001C38.5522 31.9322 38.8104 30.8253 38.883 29.2044C38.9568 27.5797 38.974 27.0619 38.974 22.927C38.974 18.7922 38.9568 18.2732 38.883 16.6497C38.8092 15.0287 38.5522 13.9212 38.1758 12.954C37.786 11.9528 37.2656 11.1042 36.4196 10.2568C35.5735 9.40939 34.7235 8.88928 33.7236 8.50059C32.7545 8.12421 31.6475 7.86598 30.0279 7.79338C28.4042 7.7192 27.8854 7.70117 23.7511 7.70117C19.6169 7.70117 19.0969 7.71835 17.4726 7.79338" fill="white"/>
<defs>
<radialGradient id="paint0_radial_255_592" cx="0" cy="0" r="1" gradientUnits="userSpaceOnUse" gradientTransform="translate(3.81999 45.1568) scale(58.6164)">
<stop offset="0.09" stop-color="#FA8F21"/>
<stop offset="0.78" stop-color="#D82D7E"/>
</radialGradient>
<radialGradient id="paint1_radial_255_592" cx="0" cy="0" r="1" gradientUnits="userSpaceOnUse" gradientTransform="translate(32.8111 43.6743) scale(51.583)">
<stop offset="0.64" stop-color="#8C3AAA" stop-opacity="0"/>
<stop offset="1" stop-color="#8C3AAA"/>
</radialGradient>
</defs>
</svg>
