<svg width="48" height="47" viewBox="0 0 48 47" fill="none" xmlns="http://www.w3.org/2000/svg">
<rect x="0.886719" width="46.1682" height="46.1682" rx="23.0841" fill="#0A66C2"/>
<g clip-path="url(#clip0_255_591)">
<path d="M10.5049 13.2121C10.5049 12.3456 10.8082 11.6307 11.4147 11.0675C12.0213 10.5043 12.8098 10.2227 13.7803 10.2227C14.7335 10.2227 15.5047 10.4999 16.0939 11.0545C16.7005 11.6264 17.0038 12.3716 17.0038 13.2901C17.0038 14.122 16.7092 14.8152 16.1199 15.3698C15.5134 15.9417 14.7162 16.2276 13.7283 16.2276H13.7023C12.7492 16.2276 11.978 15.9417 11.3887 15.3698C10.7995 14.7979 10.5049 14.0787 10.5049 13.2121ZM10.8428 35.9583V18.5932H16.6138V35.9583H10.8428ZM19.8113 35.9583H25.5823V26.2619C25.5823 25.6554 25.6517 25.1874 25.7903 24.8582C26.0329 24.2689 26.4012 23.7707 26.8951 23.3634C27.389 22.9562 28.0086 22.7525 28.7538 22.7525C30.6948 22.7525 31.6653 24.061 31.6653 26.6779V35.9583H37.4363V26.002C37.4363 23.4371 36.8298 21.4917 35.6166 20.166C34.4035 18.8402 32.8004 18.1773 30.8074 18.1773C28.5718 18.1773 26.8301 19.1391 25.5823 21.0628V21.1148H25.5563L25.5823 21.0628V18.5932H19.8113C19.846 19.1478 19.8633 20.8722 19.8633 23.7664C19.8633 26.6605 19.846 30.7245 19.8113 35.9583Z" fill="white"/>
</g>
<defs>
<clipPath id="clip0_255_591">
<rect x="10.5049" y="9.61914" width="26.9314" height="26.9314" fill="white"/>
</clipPath>
</defs>
</svg>
