<svg width="24" height="24" viewBox="0 0 24 24" fill="none" xmlns="http://www.w3.org/2000/svg">
<path d="M12.3984 19.8037L12.7438 20.4695L12.7438 20.4695L12.3984 19.8037ZM11.6016 19.8037L11.2562 20.4695L11.2562 20.4695L11.6016 19.8037ZM12 4V4.75C15.4518 4.75 18.25 7.54822 18.25 11H19H19.75C19.75 6.71979 16.2802 3.25 12 3.25V4ZM19 11H18.25C18.25 13.2362 17.1112 15.0658 15.7229 16.4662C14.3353 17.8659 12.7612 18.7706 12.0531 19.138L12.3984 19.8037L12.7438 20.4695C13.5192 20.0672 15.2459 19.078 16.7882 17.5222C18.3298 15.9672 19.75 13.7797 19.75 11H19ZM12.3984 19.8037L12.0531 19.1379C12.0168 19.1568 11.9832 19.1568 11.9469 19.1379L11.6016 19.8037L11.2562 20.4695C11.7256 20.7129 12.2744 20.7129 12.7438 20.4695L12.3984 19.8037ZM11.6016 19.8037L11.9469 19.138C11.2388 18.7706 9.66472 17.8659 8.27711 16.4662C6.88881 15.0658 5.75 13.2362 5.75 11H5H4.25C4.25 13.7797 5.67023 15.9672 7.21185 17.5222C8.75415 19.078 10.4808 20.0672 11.2562 20.4695L11.6016 19.8037ZM5 11H5.75C5.75 7.54822 8.54822 4.75 12 4.75V4V3.25C7.71979 3.25 4.25 6.71979 4.25 11H5ZM12 8V7.25C9.92893 7.25 8.25 8.92893 8.25 11H9H9.75C9.75 9.75736 10.7574 8.75 12 8.75V8ZM9 11H8.25C8.25 13.0711 9.92893 14.75 12 14.75V14V13.25C10.7574 13.25 9.75 12.2426 9.75 11H9ZM12 14V14.75C14.0711 14.75 15.75 13.0711 15.75 11H15H14.25C14.25 12.2426 13.2426 13.25 12 13.25V14ZM15 11H15.75C15.75 8.92893 14.0711 7.25 12 7.25V8V8.75C13.2426 8.75 14.25 9.75736 14.25 11H15Z" fill="#FF3333"/>
</svg>
