<svg width="46" height="47" viewBox="0 0 46 47" fill="none" xmlns="http://www.w3.org/2000/svg">
<path d="M23.0853 0C19.0571 0.00671543 15.1007 1.06744 11.6093 3.07677C8.11796 5.0861 5.21319 7.97408 3.18365 11.4537C1.15411 14.9334 0.0704564 18.8836 0.0403838 22.9117C0.0103112 26.9399 1.03486 30.9058 3.01223 34.4154L0.00125773 44.8935C-0.0532502 45.0669 -0.0596327 45.2519 -0.0172082 45.4287C0.0252163 45.6054 0.114855 45.7674 0.242135 45.8972C0.335421 45.995 0.447516 46.073 0.571693 46.1265C0.695871 46.18 0.82957 46.2078 0.964767 46.2083H1.20564L12.1455 43.4984C15.238 45.1307 18.661 46.0391 22.156 46.1549C25.6509 46.2707 29.1265 45.5911 32.3204 44.1671C35.5142 42.7432 38.3429 40.6123 40.5927 37.9353C42.8425 35.2583 44.4547 32.1051 45.3076 28.7138C46.1605 25.3225 46.2318 21.7818 45.5161 18.3589C44.8004 14.9361 43.3164 11.7206 41.1762 8.95512C39.036 6.1897 36.2954 3.94664 33.1615 2.39532C30.0276 0.843994 26.5821 0.0249421 23.0853 0ZM34.6976 31.2237C34.2058 32.5887 31.8372 33.8433 30.683 34.0039C29.4374 34.2174 28.1592 34.1384 26.9494 33.773C25.8054 33.4181 24.6799 33.0061 23.5771 32.5385C17.6355 30.0093 13.7513 24.0978 13.4502 23.7063C13.1491 23.3149 11.0415 20.5348 11.0415 17.6543C11.0239 16.7407 11.1999 15.8337 11.558 14.993C11.9161 14.1523 12.4481 13.3969 13.119 12.7765C13.3166 12.5519 13.5586 12.3707 13.8299 12.2446C14.1012 12.1184 14.3957 12.0501 14.6948 12.0439C15.0962 12.0439 15.4877 12.0439 15.8289 12.0439C16.1702 12.0439 16.682 11.9034 17.1638 13.0475C17.6455 14.1917 18.8499 17.0621 18.9904 17.3934C19.0785 17.5459 19.1249 17.719 19.1249 17.8952C19.1249 18.0714 19.0785 18.2444 18.9904 18.397C18.8486 18.7614 18.6487 19.1004 18.3983 19.4007C18.1072 19.7419 17.776 20.1634 17.5151 20.4043C17.2541 20.6452 16.9028 21.0166 17.2541 21.5987C18.1442 23.0942 19.2539 24.4475 20.5461 25.6133C21.9553 26.8514 23.5682 27.8361 25.3135 28.5239C25.9056 28.815 26.2469 28.7648 26.5981 28.3733C26.9494 27.9819 28.0735 26.6671 28.475 26.085C28.8764 25.5029 29.2578 25.5932 29.8098 25.7839C30.3618 25.9746 33.2624 27.3998 33.8245 27.6909C34.3865 27.9819 34.8281 28.1325 34.9586 28.3733C35.163 29.3279 35.072 30.3221 34.6976 31.2237Z" fill="#23A414"/>
</svg>
