<svg width="62" height="63" viewBox="0 0 62 63" fill="none" xmlns="http://www.w3.org/2000/svg">
<path d="M31.062 0C25.6524 0.00901827 20.3393 1.43348 15.6507 4.13185C10.9621 6.83021 7.0612 10.7085 4.3357 15.3814C1.61019 20.0543 0.154943 25.359 0.114558 30.7685C0.0741735 36.178 1.45006 41.5039 4.10549 46.217L0.0620154 60.2883C-0.0111842 60.5212 -0.0197554 60.7696 0.0372172 61.0069C0.0941897 61.2443 0.214567 61.4618 0.385494 61.6361C0.510769 61.7675 0.661303 61.8723 0.828063 61.944C0.994823 62.0159 1.17437 62.0532 1.35593 62.0539H1.67941L16.3707 58.4148C20.5237 60.6068 25.1205 61.8266 29.814 61.9822C34.5074 62.1378 39.1749 61.225 43.4639 59.3128C47.753 57.4006 51.5516 54.539 54.5729 50.9439C57.5942 47.3489 59.7593 43.1144 60.9047 38.5602C62.0501 34.006 62.1458 29.2511 61.1847 24.6545C60.2236 20.0579 58.2307 15.7397 55.3565 12.026C52.4824 8.31225 48.8021 5.30001 44.5935 3.21671C40.3848 1.13341 35.7579 0.0334951 31.062 0ZM46.6564 41.9309C45.9959 43.7639 42.8151 45.4487 41.2651 45.6643C39.5923 45.9512 37.8758 45.845 36.2511 45.3543C34.7148 44.8777 33.2034 44.3244 31.7225 43.6965C23.7433 40.3 18.5272 32.3613 18.1229 31.8357C17.7185 31.31 14.8881 27.5765 14.8881 23.7083C14.8645 22.4813 15.1009 21.2633 15.5818 20.1343C16.0626 19.0053 16.7771 17.9909 17.6781 17.1578C17.9433 16.8561 18.2684 16.6128 18.6327 16.4434C18.997 16.2741 19.3925 16.1823 19.7942 16.1739C20.3333 16.1739 20.859 16.1739 21.3172 16.1739C21.7755 16.1739 22.4629 15.9852 23.1098 17.5217C23.7568 19.0583 25.3742 22.913 25.5629 23.3578C25.6812 23.5627 25.7435 23.7951 25.7435 24.0317C25.7435 24.2683 25.6812 24.5008 25.5629 24.7057C25.3725 25.195 25.1039 25.6502 24.7677 26.0535C24.3768 26.5117 23.932 27.0778 23.5816 27.4013C23.2311 27.7248 22.7594 28.2235 23.2311 29.0052C24.4264 31.0136 25.9167 32.831 27.652 34.3965C29.5445 36.0592 31.7105 37.3816 34.0542 38.3052C34.8494 38.6961 35.3077 38.6287 35.7794 38.103C36.2511 37.5774 37.7607 35.8117 38.2998 35.03C38.839 34.2483 39.3511 34.3696 40.0925 34.6257C40.8338 34.8817 44.729 36.7957 45.4838 37.1865C46.2385 37.5774 46.8316 37.7796 47.0068 38.103C47.2813 39.385 47.1591 40.7201 46.6564 41.9309Z" fill="white"/>
</svg>
